Coordinates
version=1
nRows=12
nColumns=34
inDegrees=yes

Units are S.I. units (second, meters, Newtons, ...)
If the header above contains a line with 'inDegrees', this indicates whether rotational values are in degrees (yes) or radians (no).

endheader
time	pelvis_tilt	pelvis_list	pelvis_rotation	pelvis_tx	pelvis_ty	pelvis_tz	hip_flexion_r	hip_adduction_r	hip_rotation_r	knee_angle_r	ankle_angle_r	subtalar_angle_r	mtp_angle_r	hip_flexion_l	hip_adduction_l	hip_rotation_l	knee_angle_l	ankle_angle_l	subtalar_angle_l	mtp_angle_l	lumbar_extension	lumbar_bending	lumbar_rotation	arm_flex_r	arm_add_r	arm_rot_r	elbow_flex_r	pro_sup_r	arm_flex_l	arm_add_l	arm_rot_l	elbow_flex_l	pro_sup_l
      0.00000000	     -9.66707896	      1.05070174	      0.72060227	     -0.03778587	      1.31887143	     -0.06270717	      8.36473905	     -1.93611356	     -3.68521123	      7.01537121	      6.36934515	    -13.04669848	      0.00000000	     13.79859318	     -5.31933882	      0.45780025	     12.62231386	      3.11914212	     -6.29453471	      0.00000000	     -0.41146192	      0.94001867	      1.57399957	      9.99845233	     -6.86961019	     15.54836071	     26.65857712	     87.76928613	      1.79583526	     -7.05321082	      9.40004502	     26.39532348	     72.81519524
      0.01666670	     -9.03620231	      1.00878121	      0.25636032	     -0.03262823	      1.31711453	     -0.06637496	      7.04598632	     -1.61168208	     -2.31747002	      6.31131906	      8.28703218	    -12.00703747	      0.00000000	     12.36252554	     -4.79131708	      1.23759739	     11.56850076	      3.06307790	     -7.14606355	      0.00000000	     -0.33831534	      1.46837084	      2.78465368	      8.86842842	     -6.45817144	     13.77252068	     20.67794866	     86.98952714	      3.02899392	     -5.87971680	      9.19848670	     24.36618876	     73.06671040
      0.03333330	     -9.18766719	      0.91936613	     -0.25329972	     -0.03292116	      1.31757605	     -0.06957910	      7.15812217	     -1.38278911	     -1.72955835	      6.12458368	      8.18008900	    -13.14983898	      0.00000000	     12.22486961	     -4.72426585	      1.74660080	     11.37565849	      3.26542874	     -7.93451752	      0.00000000	     -0.13122699	      1.59219987	      3.19336762	      7.46575779	     -5.89488850	     11.55257235	     17.61484313	     86.24073060	      3.45965062	     -5.50844003	      9.03917467	     23.61353451	     73.53105054
      0.05000000	     -8.19610551	      0.85898270	     -0.47829349	     -0.03196059	      1.31554692	     -0.07190196	      6.51053760	     -1.40656419	     -0.89630016	      6.53964066	      8.41253343	    -13.68842526	      0.00000000	     10.86349029	     -4.69226471	      1.65585587	     11.04713386	      2.97388613	     -9.84391171	      0.00000000	     -1.35765610	      1.57997960	      3.50969044	      6.42614340	     -5.76154308	      9.80088968	     15.86045809	     85.86057615	      4.09116093	     -5.37978604	      8.41447344	     23.43853306	     73.87022321
      0.06666670	     -8.09932299	      0.87528139	     -0.87954273	     -0.03352700	      1.32289399	     -0.07569852	      6.72995545	     -1.59641874	     -0.76816298	      6.91734062	      8.26652794	    -13.64543048	      0.00000000	     10.48269481	     -4.40810334	      1.85803656	     10.57782617	      3.10722367	     -9.87115038	      0.00000000	     -1.40649532	      1.85356370	      3.18864612	      5.63369684	     -5.97361941	      9.56421253	     15.43552331	     85.83439146	      4.03379517	     -5.17821149	      8.32352200	     23.42234444	     73.92530717
      0.08333330	     -7.80897067	      0.97595899	     -1.45612896	     -0.03836323	      1.32343643	     -0.07868555	      6.99087411	     -1.80655402	      0.06163768	      7.51602775	      8.38578124	    -13.93331899	      0.00000000	     10.14322086	     -4.15697047	      1.48656102	     10.23377153	      2.90600823	    -10.78145026	      0.00000000	     -2.06254424	      1.88082638	      3.79173436	      5.63519195	     -5.85219179	      8.14750620	     14.15230988	     85.75203353	      4.65217742	     -4.86256396	      7.37654533	     23.44212751	     74.22031940
      0.10000000	     -7.59333236	      0.99100038	     -1.42772282	     -0.03512332	      1.32254354	     -0.08227500	      7.02463422	     -2.07818848	     -0.01143221	      7.93468232	      8.25500427	    -14.04007851	      0.00000000	      9.77493585	     -3.88655918	      1.58669912	      9.97855990	      3.01304924	    -10.82378076	      0.00000000	     -1.86906161	      2.17078505	      3.54606981	      5.18821320	     -6.05623741	      7.87002626	     13.91539405	     85.74861946	      4.73749013	     -4.58873744	      7.20838856	     23.54907777	     74.29372215
      0.11666670	     -7.45624978	      0.96390733	     -1.46400909	     -0.03595537	      1.32586257	     -0.08683610	      7.07414736	     -2.29561690	      0.09982404	      8.21449025	      8.19921367	    -14.01519930	      0.00000000	      9.71711781	     -3.65077990	      1.58304985	      9.88762340	      3.03514894	    -10.83930762	      0.00000000	     -1.85517188	      2.48859463	      3.37068354	      4.93096638	     -6.04747576	      7.80851608	     13.82093753	     85.75029158	      4.93022949	     -4.55589689	      7.14860060	     23.63696617	     74.31053137
      0.13333330	     -6.92014337	      0.98205672	     -1.36286272	     -0.03383452	      1.31907376	     -0.08990678	      7.12782816	     -2.49990173	      0.78929068	      9.29140242	      8.32102758	    -15.09435287	      0.00000000	      9.11683029	     -3.31653815	      2.28578170	      9.98869371	      3.02193280	    -12.13750262	      0.00000000	     -2.60235654	      2.54701975	      3.09193250	      4.42017364	     -5.52653676	     -1.46239415	     15.48127876	     86.54432519	      4.14029892	     -3.53009332	     -0.79204742	     26.07632712	     77.34914177
      0.15000000	     -6.70158987	      1.04118468	     -1.06353713	     -0.02759617	      1.31461705	     -0.09395875	      7.32932403	     -2.86152384	      0.51666034	     10.46765383	      9.29844108	    -14.26799397	      0.00000000	      8.89329466	     -3.00486850	      2.30803699	     10.31453538	      3.95099182	    -11.15129026	      0.00000000	     -2.54615653	      2.57541401	      3.39552965	      2.80749747	     -5.26900589	     -6.98466054	     18.39081647	     94.51382999	      4.16179125	     -3.27426426	     -2.00028377	     26.27252831	     87.46251452
      0.16666670	     -6.48104607	      1.07076989	     -1.13880225	     -0.03185240	      1.31570551	     -0.09780003	      7.51166785	     -3.07530629	      1.07437540	     11.29523266	     10.04319147	    -14.68543304	      0.00000000	      8.52045339	     -2.75434509	      2.25883811	     10.40597654	      4.17596805	    -11.48279216	      0.00000000	     -2.27361945	      2.66722180	      3.37936707	      2.48941328	     -5.38461214	     -7.08798843	     18.18077574	     94.62556284	      3.99447132	     -3.33016101	     -2.12352094	     26.39619860	     87.56103874
      0.18333330	     -6.66128985	      1.21988191	     -1.23820313	     -0.02764788	      1.31640275	     -0.10017883	      8.21184279	     -3.44856035	      1.62808994	     12.40025195	      9.77763535	    -15.87240780	      0.00000000	      8.52859131	     -2.44252182	      2.37073109	     10.52478324	      3.93060382	    -12.07157484	      0.00000000	     -1.65192324	      2.36860059	      3.23535979	      1.97792816	     -5.19379610	     -7.61343070	     18.74369464	     95.19874575	      3.35392867	     -3.51559049	     -2.84456273	     27.33456813	     88.13505784
